<?xml version="1.0" encoding="UTF-8"?>
<svg xmlns="http://www.w3.org/2000/svg" xmlns:xlink="http://www.w3.org/1999/xlink"
     width="5000" height="17297.297297297297" viewBox="-24.28125 -84.0 48.5625 168.0">
<defs>
</defs>
<path d="m23.175,80.175 h-0.425 A0.175,0.175,0,0,1,22.6625,79.84844555433773 l0.5125000000000006,-0.2958920129596835 Z" stroke-width="0.01" stroke="black" fill="none" />
<path d="m23.175,74.46377551020407 h-0.425 A0.175,0.175,0,0,1,22.575,74.28877551020408 v-0.25 A0.175,0.175,0,0,1,22.6625,73.8872210645418 l0.5125000000000006,-0.2958920129596835 Z" stroke-width="0.01" stroke="black" fill="none" />
<path d="m23.175,71.36377551020406 h-0.425 A0.175,0.175,0,0,1,22.575,71.18877551020407 v-0.5 A0.175,0.175,0,0,1,22.6625,70.5372210645418 l0.5125000000000006,-0.2958920129596835 Z" stroke-width="0.01" stroke="black" fill="none" />
<path d="m23.175,69.61473214285708 h-0.425 A0.175,0.175,0,0,1,22.6625,69.28817769719481 l0.5125000000000006,-0.2958920129596835 Z" stroke-width="0.01" stroke="black" fill="none" />
<path d="m23.175,68.36551339285707 h-0.425 A0.175,0.175,0,0,1,22.6625,68.0389589471948 l0.5125000000000006,-0.2958920129596835 Z" stroke-width="0.01" stroke="black" fill="none" />
<path d="m23.175,67.11629464285674 h-0.425 A0.175,0.175,0,0,1,22.6625,66.78974019719448 l0.5125000000000006,-0.2958920129596835 Z" stroke-width="0.01" stroke="black" fill="none" />
<path d="m23.175,54.42786989795946 h-0.425 A0.175,0.175,0,0,1,22.6625,54.101315452297186 l0.5125000000000006,-0.2958920129596835 Z" stroke-width="0.01" stroke="black" fill="none" />
<path d="m23.175,50.70084502551009 h-0.425 A0.175,0.175,0,0,1,22.6625,50.374290579847816 l0.5125000000000006,-0.2958920129596835 Z" stroke-width="0.01" stroke="black" fill="none" />
<path d="m23.175,49.08742028061205 h-0.425 A0.175,0.175,0,0,1,22.6625,48.760865834949776 l0.5125000000000006,-0.2958920129596835 Z" stroke-width="0.01" stroke="black" fill="none" />
<path d="m23.175,47.59992028061216 h-0.425 A0.175,0.175,0,0,1,22.6625,47.273365834949885 l0.5125000000000006,-0.2958920129596835 Z" stroke-width="0.01" stroke="black" fill="none" />
<path d="m23.175,44.943989158163234 h-0.425 A0.175,0.175,0,0,1,22.6625,44.61743471250096 l0.5125000000000006,-0.2958920129596835 Z" stroke-width="0.01" stroke="black" fill="none" />
<path d="m23.175,37.93962053571433 h-0.425 A0.175,0.175,0,0,1,22.6625,37.61306609005206 l0.5125000000000006,-0.2958920129596835 Z" stroke-width="0.01" stroke="black" fill="none" />
<path d="m23.175,34.5938456632652 h-0.425 A0.175,0.175,0,0,1,22.6625,34.267291217602924 l0.5125000000000006,-0.2958920129596835 Z" stroke-width="0.01" stroke="black" fill="none" />
<path d="m23.175,31.11994579081641 h-0.425 A0.175,0.175,0,0,1,22.6625,30.79339134515413 l0.5125000000000006,-0.2958920129596835 Z" stroke-width="0.01" stroke="black" fill="none" />
<path d="m23.175,28.34917091836734 h-0.425 A0.175,0.175,0,0,1,22.6625,28.02261647270506 l0.5125000000000006,-0.2958920129596835 Z" stroke-width="0.01" stroke="black" fill="none" />
<path d="m23.175,24.219802295918306 h-0.425 A0.175,0.175,0,0,1,22.6625,23.893247850256028 l0.5125000000000006,-0.2958920129596835 Z" stroke-width="0.01" stroke="black" fill="none" />
<path d="m23.175,21.45683992346932 h-0.425 A0.175,0.175,0,0,1,22.6625,21.130285477807043 l0.5125000000000006,-0.2958920129596835 Z" stroke-width="0.01" stroke="black" fill="none" />
<path d="m23.175,15.8938775510205 h-0.425 A0.175,0.175,0,0,1,22.6625,15.567323105358224 l0.5125000000000006,-0.2958920129596835 Z" stroke-width="0.01" stroke="black" fill="none" />
<path d="m23.175,12.990290178571422 h-0.425 A0.175,0.175,0,0,1,22.6625,12.663735732909146 l0.5125000000000006,-0.2958920129596835 Z" stroke-width="0.01" stroke="black" fill="none" />
<path d="m23.175,9.139046556122446 h-0.425 A0.175,0.175,0,0,1,22.6625,8.81249211046017 l0.5125000000000006,-0.2958920129596835 Z" stroke-width="0.01" stroke="black" fill="none" />
<path d="m23.175,5.5795280612244955 h-0.425 A0.175,0.175,0,0,1,22.6625,5.252973615562219 l0.5125000000000006,-0.2958920129596835 Z" stroke-width="0.01" stroke="black" fill="none" />
<path d="m23.175,3.7560905612244926 h-0.425 A0.175,0.175,0,0,1,22.6625,3.429536115562216 l0.5125000000000006,-0.2958920129596835 Z" stroke-width="0.01" stroke="black" fill="none" />
<path d="m23.175,-3.406090561224493 h-0.425 A0.175,0.175,0,0,1,22.6625,-3.7326450068867696 l0.5125000000000006,-0.2958920129596835 Z" stroke-width="0.01" stroke="black" fill="none" />
<path d="m23.175,-5.229528061224496 h-0.425 A0.175,0.175,0,0,1,22.6625,-5.5560825068867725 l0.5125000000000006,-0.2958920129596835 Z" stroke-width="0.01" stroke="black" fill="none" />
<path d="m23.175,-8.789046556122445 h-0.425 A0.175,0.175,0,0,1,22.6625,-9.115601001784722 l0.5125000000000006,-0.2958920129596835 Z" stroke-width="0.01" stroke="black" fill="none" />
<path d="m23.175,-12.640290178571421 h-0.425 A0.175,0.175,0,0,1,22.6625,-12.966844624233698 l0.5125000000000006,-0.2958920129596835 Z" stroke-width="0.01" stroke="black" fill="none" />
<path d="m23.175,-15.543877551020499 h-0.425 A0.175,0.175,0,0,1,22.6625,-15.870431996682775 l0.5125000000000006,-0.2958920129596835 Z" stroke-width="0.01" stroke="black" fill="none" />
<path d="m23.175,-21.10683992346932 h-0.425 A0.175,0.175,0,0,1,22.6625,-21.433394369131598 l0.5125000000000006,-0.2958920129596835 Z" stroke-width="0.01" stroke="black" fill="none" />
<path d="m23.175,-23.869802295918305 h-0.425 A0.175,0.175,0,0,1,22.6625,-24.196356741580583 l0.5125000000000006,-0.2958920129596835 Z" stroke-width="0.01" stroke="black" fill="none" />
<path d="m23.175,-27.999170918367337 h-0.425 A0.175,0.175,0,0,1,22.6625,-28.325725364029616 l0.5125000000000006,-0.2958920129596835 Z" stroke-width="0.01" stroke="black" fill="none" />
<path d="m23.175,-30.769945790816408 h-0.425 A0.175,0.175,0,0,1,22.6625,-31.096500236478686 l0.5125000000000006,-0.2958920129596835 Z" stroke-width="0.01" stroke="black" fill="none" />
<path d="m23.175,-34.243845663265205 h-0.425 A0.175,0.175,0,0,1,22.6625,-34.57040010892748 l0.5125000000000006,-0.2958920129596835 Z" stroke-width="0.01" stroke="black" fill="none" />
<path d="m23.175,-37.58962053571434 h-0.425 A0.175,0.175,0,0,1,22.6625,-37.916174981376614 l0.5125000000000006,-0.2958920129596835 Z" stroke-width="0.01" stroke="black" fill="none" />
<path d="m23.175,-44.59398915816324 h-0.425 A0.175,0.175,0,0,1,22.6625,-44.920543603825514 l0.5125000000000006,-0.2958920129596835 Z" stroke-width="0.01" stroke="black" fill="none" />
<path d="m23.175,-47.249920280612166 h-0.425 A0.175,0.175,0,0,1,22.6625,-47.57647472627444 l0.5125000000000006,-0.2958920129596835 Z" stroke-width="0.01" stroke="black" fill="none" />
<path d="m23.175,-48.737420280612056 h-0.425 A0.175,0.175,0,0,1,22.6625,-49.06397472627433 l0.5125000000000006,-0.2958920129596835 Z" stroke-width="0.01" stroke="black" fill="none" />
<path d="m23.175,-50.3508450255101 h-0.425 A0.175,0.175,0,0,1,22.6625,-50.67739947117237 l0.5125000000000006,-0.2958920129596835 Z" stroke-width="0.01" stroke="black" fill="none" />
<path d="m23.175,-54.07786989795947 h-0.425 A0.175,0.175,0,0,1,22.6625,-54.40442434362174 l0.5125000000000006,-0.2958920129596835 Z" stroke-width="0.01" stroke="black" fill="none" />
<path d="m23.175,-66.76629464285675 h-0.425 A0.175,0.175,0,0,1,22.6625,-67.09284908851902 l0.5125000000000006,-0.2958920129596835 Z" stroke-width="0.01" stroke="black" fill="none" />
<path d="m23.175,-68.01551339285707 h-0.425 A0.175,0.175,0,0,1,22.6625,-68.34206783851934 l0.5125000000000006,-0.2958920129596835 Z" stroke-width="0.01" stroke="black" fill="none" />
<path d="m23.175,-69.26473214285708 h-0.425 A0.175,0.175,0,0,1,22.6625,-69.59128658851935 l0.5125000000000006,-0.2958920129596835 Z" stroke-width="0.01" stroke="black" fill="none" />
<path d="m23.175,-70.51377551020407 h-0.425 A0.175,0.175,0,0,1,22.575,-70.68877551020407 v-0.5 A0.175,0.175,0,0,1,22.6625,-71.34032995586634 l0.5125000000000006,-0.2958920129596835 Z" stroke-width="0.01" stroke="black" fill="none" />
<path d="m23.175,-73.86377551020408 h-0.425 A0.175,0.175,0,0,1,22.575,-74.03877551020408 v-0.25 A0.175,0.175,0,0,1,22.6625,-74.44032995586635 l0.5125000000000006,-0.2958920129596835 Z" stroke-width="0.01" stroke="black" fill="none" />
<path d="m23.175,-79.825 h-0.425 A0.175,0.175,0,0,1,22.6625,-80.15155444566227 l0.5125000000000006,-0.2958920129596835 Z" stroke-width="0.01" stroke="black" fill="none" />
<circle cx="23.0" cy="80.0" r="0.125" fill="none" stroke-width="0.01" stroke="black" />
<circle cx="22.75" cy="80.0" r="0.125" fill="none" stroke-width="0.01" stroke="black" />
<circle cx="-80.0" cy="80.0" r="0.125" fill="none" stroke-width="0.01" stroke="black" />
<circle cx="23.0" cy="74.28877551020408" r="0.125" fill="none" stroke-width="0.01" stroke="black" />
<circle cx="22.75" cy="74.28877551020408" r="0.125" fill="none" stroke-width="0.01" stroke="black" />
<circle cx="-80.0" cy="74.28877551020408" r="0.125" fill="none" stroke-width="0.01" stroke="black" />
<circle cx="23.0" cy="74.03877551020408" r="0.125" fill="none" stroke-width="0.01" stroke="black" />
<circle cx="22.75" cy="74.03877551020408" r="0.125" fill="none" stroke-width="0.01" stroke="black" />
<circle cx="-80.0" cy="74.03877551020408" r="0.125" fill="none" stroke-width="0.01" stroke="black" />
<circle cx="23.0" cy="71.18877551020407" r="0.125" fill="none" stroke-width="0.01" stroke="black" />
<circle cx="22.75" cy="71.18877551020407" r="0.125" fill="none" stroke-width="0.01" stroke="black" />
<circle cx="-80.0" cy="71.18877551020407" r="0.125" fill="none" stroke-width="0.01" stroke="black" />
<circle cx="23.0" cy="70.93877551020407" r="0.125" fill="none" stroke-width="0.01" stroke="black" />
<circle cx="22.75" cy="70.93877551020407" r="0.125" fill="none" stroke-width="0.01" stroke="black" />
<circle cx="-80.0" cy="70.93877551020407" r="0.125" fill="none" stroke-width="0.01" stroke="black" />
<circle cx="23.0" cy="70.68877551020407" r="0.125" fill="none" stroke-width="0.01" stroke="black" />
<circle cx="22.75" cy="70.68877551020407" r="0.125" fill="none" stroke-width="0.01" stroke="black" />
<circle cx="-80.0" cy="70.68877551020407" r="0.125" fill="none" stroke-width="0.01" stroke="black" />
<circle cx="23.0" cy="69.43973214285708" r="0.125" fill="none" stroke-width="0.01" stroke="black" />
<circle cx="22.75" cy="69.43973214285708" r="0.125" fill="none" stroke-width="0.01" stroke="black" />
<circle cx="-80.0" cy="69.43973214285708" r="0.125" fill="none" stroke-width="0.01" stroke="black" />
<circle cx="23.0" cy="68.19051339285707" r="0.125" fill="none" stroke-width="0.01" stroke="black" />
<circle cx="22.75" cy="68.19051339285707" r="0.125" fill="none" stroke-width="0.01" stroke="black" />
<circle cx="-80.0" cy="68.19051339285707" r="0.125" fill="none" stroke-width="0.01" stroke="black" />
<circle cx="23.0" cy="66.94129464285675" r="0.125" fill="none" stroke-width="0.01" stroke="black" />
<circle cx="22.75" cy="66.94129464285675" r="0.125" fill="none" stroke-width="0.01" stroke="black" />
<circle cx="-80.0" cy="66.94129464285675" r="0.125" fill="none" stroke-width="0.01" stroke="black" />
<circle cx="23.0" cy="54.252869897959464" r="0.125" fill="none" stroke-width="0.01" stroke="black" />
<circle cx="22.75" cy="54.252869897959464" r="0.125" fill="none" stroke-width="0.01" stroke="black" />
<circle cx="-80.0" cy="54.252869897959464" r="0.125" fill="none" stroke-width="0.01" stroke="black" />
<circle cx="23.0" cy="50.525845025510094" r="0.125" fill="none" stroke-width="0.01" stroke="black" />
<circle cx="22.75" cy="50.525845025510094" r="0.125" fill="none" stroke-width="0.01" stroke="black" />
<circle cx="-80.0" cy="50.525845025510094" r="0.125" fill="none" stroke-width="0.01" stroke="black" />
<circle cx="23.0" cy="48.912420280612054" r="0.125" fill="none" stroke-width="0.01" stroke="black" />
<circle cx="22.75" cy="48.912420280612054" r="0.125" fill="none" stroke-width="0.01" stroke="black" />
<circle cx="-80.0" cy="48.912420280612054" r="0.125" fill="none" stroke-width="0.01" stroke="black" />
<circle cx="23.0" cy="47.42492028061216" r="0.125" fill="none" stroke-width="0.01" stroke="black" />
<circle cx="22.75" cy="47.42492028061216" r="0.125" fill="none" stroke-width="0.01" stroke="black" />
<circle cx="-80.0" cy="47.42492028061216" r="0.125" fill="none" stroke-width="0.01" stroke="black" />
<circle cx="23.0" cy="44.76898915816324" r="0.125" fill="none" stroke-width="0.01" stroke="black" />
<circle cx="22.75" cy="44.76898915816324" r="0.125" fill="none" stroke-width="0.01" stroke="black" />
<circle cx="-80.0" cy="44.76898915816324" r="0.125" fill="none" stroke-width="0.01" stroke="black" />
<circle cx="23.0" cy="37.764620535714336" r="0.125" fill="none" stroke-width="0.01" stroke="black" />
<circle cx="22.75" cy="37.764620535714336" r="0.125" fill="none" stroke-width="0.01" stroke="black" />
<circle cx="-80.0" cy="37.764620535714336" r="0.125" fill="none" stroke-width="0.01" stroke="black" />
<circle cx="23.0" cy="34.4188456632652" r="0.125" fill="none" stroke-width="0.01" stroke="black" />
<circle cx="22.75" cy="34.4188456632652" r="0.125" fill="none" stroke-width="0.01" stroke="black" />
<circle cx="-80.0" cy="34.4188456632652" r="0.125" fill="none" stroke-width="0.01" stroke="black" />
<circle cx="23.0" cy="30.94494579081641" r="0.125" fill="none" stroke-width="0.01" stroke="black" />
<circle cx="22.75" cy="30.94494579081641" r="0.125" fill="none" stroke-width="0.01" stroke="black" />
<circle cx="-80.0" cy="30.94494579081641" r="0.125" fill="none" stroke-width="0.01" stroke="black" />
<circle cx="23.0" cy="28.174170918367338" r="0.125" fill="none" stroke-width="0.01" stroke="black" />
<circle cx="22.75" cy="28.174170918367338" r="0.125" fill="none" stroke-width="0.01" stroke="black" />
<circle cx="-80.0" cy="28.174170918367338" r="0.125" fill="none" stroke-width="0.01" stroke="black" />
<circle cx="23.0" cy="24.044802295918306" r="0.125" fill="none" stroke-width="0.01" stroke="black" />
<circle cx="22.75" cy="24.044802295918306" r="0.125" fill="none" stroke-width="0.01" stroke="black" />
<circle cx="-80.0" cy="24.044802295918306" r="0.125" fill="none" stroke-width="0.01" stroke="black" />
<circle cx="23.0" cy="21.28183992346932" r="0.125" fill="none" stroke-width="0.01" stroke="black" />
<circle cx="22.75" cy="21.28183992346932" r="0.125" fill="none" stroke-width="0.01" stroke="black" />
<circle cx="-80.0" cy="21.28183992346932" r="0.125" fill="none" stroke-width="0.01" stroke="black" />
<circle cx="23.0" cy="15.7188775510205" r="0.125" fill="none" stroke-width="0.01" stroke="black" />
<circle cx="22.75" cy="15.7188775510205" r="0.125" fill="none" stroke-width="0.01" stroke="black" />
<circle cx="-80.0" cy="15.7188775510205" r="0.125" fill="none" stroke-width="0.01" stroke="black" />
<circle cx="23.0" cy="12.815290178571422" r="0.125" fill="none" stroke-width="0.01" stroke="black" />
<circle cx="22.75" cy="12.815290178571422" r="0.125" fill="none" stroke-width="0.01" stroke="black" />
<circle cx="-80.0" cy="12.815290178571422" r="0.125" fill="none" stroke-width="0.01" stroke="black" />
<circle cx="23.0" cy="8.964046556122446" r="0.125" fill="none" stroke-width="0.01" stroke="black" />
<circle cx="22.75" cy="8.964046556122446" r="0.125" fill="none" stroke-width="0.01" stroke="black" />
<circle cx="-80.0" cy="8.964046556122446" r="0.125" fill="none" stroke-width="0.01" stroke="black" />
<circle cx="23.0" cy="5.404528061224496" r="0.125" fill="none" stroke-width="0.01" stroke="black" />
<circle cx="22.75" cy="5.404528061224496" r="0.125" fill="none" stroke-width="0.01" stroke="black" />
<circle cx="-80.0" cy="5.404528061224496" r="0.125" fill="none" stroke-width="0.01" stroke="black" />
<circle cx="23.0" cy="3.5810905612244928" r="0.125" fill="none" stroke-width="0.01" stroke="black" />
<circle cx="22.75" cy="3.5810905612244928" r="0.125" fill="none" stroke-width="0.01" stroke="black" />
<circle cx="-80.0" cy="3.5810905612244928" r="0.125" fill="none" stroke-width="0.01" stroke="black" />
<circle cx="23.0" cy="-3.5810905612244928" r="0.125" fill="none" stroke-width="0.01" stroke="black" />
<circle cx="22.75" cy="-3.5810905612244928" r="0.125" fill="none" stroke-width="0.01" stroke="black" />
<circle cx="-80.0" cy="-3.5810905612244928" r="0.125" fill="none" stroke-width="0.01" stroke="black" />
<circle cx="23.0" cy="-5.404528061224496" r="0.125" fill="none" stroke-width="0.01" stroke="black" />
<circle cx="22.75" cy="-5.404528061224496" r="0.125" fill="none" stroke-width="0.01" stroke="black" />
<circle cx="-80.0" cy="-5.404528061224496" r="0.125" fill="none" stroke-width="0.01" stroke="black" />
<circle cx="23.0" cy="-8.964046556122446" r="0.125" fill="none" stroke-width="0.01" stroke="black" />
<circle cx="22.75" cy="-8.964046556122446" r="0.125" fill="none" stroke-width="0.01" stroke="black" />
<circle cx="-80.0" cy="-8.964046556122446" r="0.125" fill="none" stroke-width="0.01" stroke="black" />
<circle cx="23.0" cy="-12.815290178571422" r="0.125" fill="none" stroke-width="0.01" stroke="black" />
<circle cx="22.75" cy="-12.815290178571422" r="0.125" fill="none" stroke-width="0.01" stroke="black" />
<circle cx="-80.0" cy="-12.815290178571422" r="0.125" fill="none" stroke-width="0.01" stroke="black" />
<circle cx="23.0" cy="-15.7188775510205" r="0.125" fill="none" stroke-width="0.01" stroke="black" />
<circle cx="22.75" cy="-15.7188775510205" r="0.125" fill="none" stroke-width="0.01" stroke="black" />
<circle cx="-80.0" cy="-15.7188775510205" r="0.125" fill="none" stroke-width="0.01" stroke="black" />
<circle cx="23.0" cy="-21.28183992346932" r="0.125" fill="none" stroke-width="0.01" stroke="black" />
<circle cx="22.75" cy="-21.28183992346932" r="0.125" fill="none" stroke-width="0.01" stroke="black" />
<circle cx="-80.0" cy="-21.28183992346932" r="0.125" fill="none" stroke-width="0.01" stroke="black" />
<circle cx="23.0" cy="-24.044802295918306" r="0.125" fill="none" stroke-width="0.01" stroke="black" />
<circle cx="22.75" cy="-24.044802295918306" r="0.125" fill="none" stroke-width="0.01" stroke="black" />
<circle cx="-80.0" cy="-24.044802295918306" r="0.125" fill="none" stroke-width="0.01" stroke="black" />
<circle cx="23.0" cy="-28.174170918367338" r="0.125" fill="none" stroke-width="0.01" stroke="black" />
<circle cx="22.75" cy="-28.174170918367338" r="0.125" fill="none" stroke-width="0.01" stroke="black" />
<circle cx="-80.0" cy="-28.174170918367338" r="0.125" fill="none" stroke-width="0.01" stroke="black" />
<circle cx="23.0" cy="-30.94494579081641" r="0.125" fill="none" stroke-width="0.01" stroke="black" />
<circle cx="22.75" cy="-30.94494579081641" r="0.125" fill="none" stroke-width="0.01" stroke="black" />
<circle cx="-80.0" cy="-30.94494579081641" r="0.125" fill="none" stroke-width="0.01" stroke="black" />
<circle cx="23.0" cy="-34.4188456632652" r="0.125" fill="none" stroke-width="0.01" stroke="black" />
<circle cx="22.75" cy="-34.4188456632652" r="0.125" fill="none" stroke-width="0.01" stroke="black" />
<circle cx="-80.0" cy="-34.4188456632652" r="0.125" fill="none" stroke-width="0.01" stroke="black" />
<circle cx="23.0" cy="-37.764620535714336" r="0.125" fill="none" stroke-width="0.01" stroke="black" />
<circle cx="22.75" cy="-37.764620535714336" r="0.125" fill="none" stroke-width="0.01" stroke="black" />
<circle cx="-80.0" cy="-37.764620535714336" r="0.125" fill="none" stroke-width="0.01" stroke="black" />
<circle cx="23.0" cy="-44.76898915816324" r="0.125" fill="none" stroke-width="0.01" stroke="black" />
<circle cx="22.75" cy="-44.76898915816324" r="0.125" fill="none" stroke-width="0.01" stroke="black" />
<circle cx="-80.0" cy="-44.76898915816324" r="0.125" fill="none" stroke-width="0.01" stroke="black" />
<circle cx="23.0" cy="-47.42492028061216" r="0.125" fill="none" stroke-width="0.01" stroke="black" />
<circle cx="22.75" cy="-47.42492028061216" r="0.125" fill="none" stroke-width="0.01" stroke="black" />
<circle cx="-80.0" cy="-47.42492028061216" r="0.125" fill="none" stroke-width="0.01" stroke="black" />
<circle cx="23.0" cy="-48.912420280612054" r="0.125" fill="none" stroke-width="0.01" stroke="black" />
<circle cx="22.75" cy="-48.912420280612054" r="0.125" fill="none" stroke-width="0.01" stroke="black" />
<circle cx="-80.0" cy="-48.912420280612054" r="0.125" fill="none" stroke-width="0.01" stroke="black" />
<circle cx="23.0" cy="-50.525845025510094" r="0.125" fill="none" stroke-width="0.01" stroke="black" />
<circle cx="22.75" cy="-50.525845025510094" r="0.125" fill="none" stroke-width="0.01" stroke="black" />
<circle cx="-80.0" cy="-50.525845025510094" r="0.125" fill="none" stroke-width="0.01" stroke="black" />
<circle cx="23.0" cy="-54.252869897959464" r="0.125" fill="none" stroke-width="0.01" stroke="black" />
<circle cx="22.75" cy="-54.252869897959464" r="0.125" fill="none" stroke-width="0.01" stroke="black" />
<circle cx="-80.0" cy="-54.252869897959464" r="0.125" fill="none" stroke-width="0.01" stroke="black" />
<circle cx="23.0" cy="-66.94129464285675" r="0.125" fill="none" stroke-width="0.01" stroke="black" />
<circle cx="22.75" cy="-66.94129464285675" r="0.125" fill="none" stroke-width="0.01" stroke="black" />
<circle cx="-80.0" cy="-66.94129464285675" r="0.125" fill="none" stroke-width="0.01" stroke="black" />
<circle cx="23.0" cy="-68.19051339285707" r="0.125" fill="none" stroke-width="0.01" stroke="black" />
<circle cx="22.75" cy="-68.19051339285707" r="0.125" fill="none" stroke-width="0.01" stroke="black" />
<circle cx="-80.0" cy="-68.19051339285707" r="0.125" fill="none" stroke-width="0.01" stroke="black" />
<circle cx="23.0" cy="-69.43973214285708" r="0.125" fill="none" stroke-width="0.01" stroke="black" />
<circle cx="22.75" cy="-69.43973214285708" r="0.125" fill="none" stroke-width="0.01" stroke="black" />
<circle cx="-80.0" cy="-69.43973214285708" r="0.125" fill="none" stroke-width="0.01" stroke="black" />
<circle cx="23.0" cy="-70.68877551020407" r="0.125" fill="none" stroke-width="0.01" stroke="black" />
<circle cx="22.75" cy="-70.68877551020407" r="0.125" fill="none" stroke-width="0.01" stroke="black" />
<circle cx="-80.0" cy="-70.68877551020407" r="0.125" fill="none" stroke-width="0.01" stroke="black" />
<circle cx="23.0" cy="-70.93877551020407" r="0.125" fill="none" stroke-width="0.01" stroke="black" />
<circle cx="22.75" cy="-70.93877551020407" r="0.125" fill="none" stroke-width="0.01" stroke="black" />
<circle cx="-80.0" cy="-70.93877551020407" r="0.125" fill="none" stroke-width="0.01" stroke="black" />
<circle cx="23.0" cy="-71.18877551020407" r="0.125" fill="none" stroke-width="0.01" stroke="black" />
<circle cx="22.75" cy="-71.18877551020407" r="0.125" fill="none" stroke-width="0.01" stroke="black" />
<circle cx="-80.0" cy="-71.18877551020407" r="0.125" fill="none" stroke-width="0.01" stroke="black" />
<circle cx="23.0" cy="-74.03877551020408" r="0.125" fill="none" stroke-width="0.01" stroke="black" />
<circle cx="22.75" cy="-74.03877551020408" r="0.125" fill="none" stroke-width="0.01" stroke="black" />
<circle cx="-80.0" cy="-74.03877551020408" r="0.125" fill="none" stroke-width="0.01" stroke="black" />
<circle cx="23.0" cy="-74.28877551020408" r="0.125" fill="none" stroke-width="0.01" stroke="black" />
<circle cx="22.75" cy="-74.28877551020408" r="0.125" fill="none" stroke-width="0.01" stroke="black" />
<circle cx="-80.0" cy="-74.28877551020408" r="0.125" fill="none" stroke-width="0.01" stroke="black" />
<circle cx="23.0" cy="-80.0" r="0.125" fill="none" stroke-width="0.01" stroke="black" />
<circle cx="22.75" cy="-80.0" r="0.125" fill="none" stroke-width="0.01" stroke="black" />
<circle cx="-80.0" cy="-80.0" r="0.125" fill="none" stroke-width="0.01" stroke="black" />
</svg>