<?xml version="1.0" encoding="UTF-8"?>
<svg xmlns="http://www.w3.org/2000/svg" xmlns:xlink="http://www.w3.org/1999/xlink"
     width="5000" height="17297.297297297297" viewBox="-24.28125 -84.0 48.5625 168.0">
<defs>
</defs>
<path d="m23.175,80.175 h-0.425 A0.175,0.175,0,1,1,22.75,79.825 h0.4250000000000007 Z" stroke-width="0.01" stroke="black" fill="none" />
<path d="m23.175,74.46377551020407 h-0.425 A0.175,0.175,0,0,1,22.575,74.28877551020408 v-0.25 A0.175,0.175,0,0,1,22.75,73.86377551020408 h0.4250000000000007 Z" stroke-width="0.01" stroke="black" fill="none" />
<path d="m23.175,71.36377551020406 h-0.425 A0.175,0.175,0,0,1,22.575,71.18877551020407 v-0.5 A0.175,0.175,0,0,1,22.75,70.51377551020407 h0.4250000000000007 Z" stroke-width="0.01" stroke="black" fill="none" />
<path d="m23.175,69.61473214285708 h-0.425 A0.175,0.175,0,1,1,22.75,69.26473214285708 h0.4250000000000007 Z" stroke-width="0.01" stroke="black" fill="none" />
<path d="m23.175,68.36551339285707 h-0.425 A0.175,0.175,0,1,1,22.75,68.01551339285707 h0.4250000000000007 Z" stroke-width="0.01" stroke="black" fill="none" />
<path d="m23.175,67.11629464285674 h-0.425 A0.175,0.175,0,1,1,22.75,66.76629464285675 h0.4250000000000007 Z" stroke-width="0.01" stroke="black" fill="none" />
<path d="m23.175,54.42786989795946 h-0.425 A0.175,0.175,0,1,1,22.75,54.07786989795947 h0.4250000000000007 Z" stroke-width="0.01" stroke="black" fill="none" />
<path d="m23.175,50.70084502551009 h-0.425 A0.175,0.175,0,1,1,22.75,50.3508450255101 h0.4250000000000007 Z" stroke-width="0.01" stroke="black" fill="none" />
<path d="m23.175,49.08742028061205 h-0.425 A0.175,0.175,0,1,1,22.75,48.737420280612056 h0.4250000000000007 Z" stroke-width="0.01" stroke="black" fill="none" />
<path d="m23.175,47.59992028061216 h-0.425 A0.175,0.175,0,1,1,22.75,47.249920280612166 h0.4250000000000007 Z" stroke-width="0.01" stroke="black" fill="none" />
<path d="m23.175,44.943989158163234 h-0.425 A0.175,0.175,0,1,1,22.75,44.59398915816324 h0.4250000000000007 Z" stroke-width="0.01" stroke="black" fill="none" />
<path d="m23.175,37.93962053571433 h-0.425 A0.175,0.175,0,1,1,22.75,37.58962053571434 h0.4250000000000007 Z" stroke-width="0.01" stroke="black" fill="none" />
<path d="m23.175,34.5938456632652 h-0.425 A0.175,0.175,0,1,1,22.75,34.243845663265205 h0.4250000000000007 Z" stroke-width="0.01" stroke="black" fill="none" />
<path d="m23.175,31.11994579081641 h-0.425 A0.175,0.175,0,1,1,22.75,30.769945790816408 h0.4250000000000007 Z" stroke-width="0.01" stroke="black" fill="none" />
<path d="m23.175,28.34917091836734 h-0.425 A0.175,0.175,0,1,1,22.75,27.999170918367337 h0.4250000000000007 Z" stroke-width="0.01" stroke="black" fill="none" />
<path d="m23.175,24.219802295918306 h-0.425 A0.175,0.175,0,1,1,22.75,23.869802295918305 h0.4250000000000007 Z" stroke-width="0.01" stroke="black" fill="none" />
<path d="m23.175,21.45683992346932 h-0.425 A0.175,0.175,0,1,1,22.75,21.10683992346932 h0.4250000000000007 Z" stroke-width="0.01" stroke="black" fill="none" />
<path d="m23.175,15.8938775510205 h-0.425 A0.175,0.175,0,1,1,22.75,15.543877551020499 h0.4250000000000007 Z" stroke-width="0.01" stroke="black" fill="none" />
<path d="m23.175,12.990290178571422 h-0.425 A0.175,0.175,0,1,1,22.75,12.640290178571421 h0.4250000000000007 Z" stroke-width="0.01" stroke="black" fill="none" />
<path d="m23.175,9.139046556122446 h-0.425 A0.175,0.175,0,1,1,22.75,8.789046556122445 h0.4250000000000007 Z" stroke-width="0.01" stroke="black" fill="none" />
<path d="m23.175,5.5795280612244955 h-0.425 A0.175,0.175,0,1,1,22.75,5.229528061224496 h0.4250000000000007 Z" stroke-width="0.01" stroke="black" fill="none" />
<path d="m23.175,3.7560905612244926 h-0.425 A0.175,0.175,0,1,1,22.75,3.406090561224493 h0.4250000000000007 Z" stroke-width="0.01" stroke="black" fill="none" />
<path d="m23.175,-3.406090561224493 h-0.425 A0.175,0.175,0,1,1,22.75,-3.7560905612244926 h0.4250000000000007 Z" stroke-width="0.01" stroke="black" fill="none" />
<path d="m23.175,-5.229528061224496 h-0.425 A0.175,0.175,0,1,1,22.75,-5.5795280612244955 h0.4250000000000007 Z" stroke-width="0.01" stroke="black" fill="none" />
<path d="m23.175,-8.789046556122445 h-0.425 A0.175,0.175,0,1,1,22.75,-9.139046556122446 h0.4250000000000007 Z" stroke-width="0.01" stroke="black" fill="none" />
<path d="m23.175,-12.640290178571421 h-0.425 A0.175,0.175,0,1,1,22.75,-12.990290178571422 h0.4250000000000007 Z" stroke-width="0.01" stroke="black" fill="none" />
<path d="m23.175,-15.543877551020499 h-0.425 A0.175,0.175,0,1,1,22.75,-15.8938775510205 h0.4250000000000007 Z" stroke-width="0.01" stroke="black" fill="none" />
<path d="m23.175,-21.10683992346932 h-0.425 A0.175,0.175,0,1,1,22.75,-21.45683992346932 h0.4250000000000007 Z" stroke-width="0.01" stroke="black" fill="none" />
<path d="m23.175,-23.869802295918305 h-0.425 A0.175,0.175,0,1,1,22.75,-24.219802295918306 h0.4250000000000007 Z" stroke-width="0.01" stroke="black" fill="none" />
<path d="m23.175,-27.999170918367337 h-0.425 A0.175,0.175,0,1,1,22.75,-28.34917091836734 h0.4250000000000007 Z" stroke-width="0.01" stroke="black" fill="none" />
<path d="m23.175,-30.769945790816408 h-0.425 A0.175,0.175,0,1,1,22.75,-31.11994579081641 h0.4250000000000007 Z" stroke-width="0.01" stroke="black" fill="none" />
<path d="m23.175,-34.243845663265205 h-0.425 A0.175,0.175,0,1,1,22.75,-34.5938456632652 h0.4250000000000007 Z" stroke-width="0.01" stroke="black" fill="none" />
<path d="m23.175,-37.58962053571434 h-0.425 A0.175,0.175,0,1,1,22.75,-37.93962053571433 h0.4250000000000007 Z" stroke-width="0.01" stroke="black" fill="none" />
<path d="m23.175,-44.59398915816324 h-0.425 A0.175,0.175,0,1,1,22.75,-44.943989158163234 h0.4250000000000007 Z" stroke-width="0.01" stroke="black" fill="none" />
<path d="m23.175,-47.249920280612166 h-0.425 A0.175,0.175,0,1,1,22.75,-47.59992028061216 h0.4250000000000007 Z" stroke-width="0.01" stroke="black" fill="none" />
<path d="m23.175,-48.737420280612056 h-0.425 A0.175,0.175,0,1,1,22.75,-49.08742028061205 h0.4250000000000007 Z" stroke-width="0.01" stroke="black" fill="none" />
<path d="m23.175,-50.3508450255101 h-0.425 A0.175,0.175,0,1,1,22.75,-50.70084502551009 h0.4250000000000007 Z" stroke-width="0.01" stroke="black" fill="none" />
<path d="m23.175,-54.07786989795947 h-0.425 A0.175,0.175,0,1,1,22.75,-54.42786989795946 h0.4250000000000007 Z" stroke-width="0.01" stroke="black" fill="none" />
<path d="m23.175,-66.76629464285675 h-0.425 A0.175,0.175,0,1,1,22.75,-67.11629464285674 h0.4250000000000007 Z" stroke-width="0.01" stroke="black" fill="none" />
<path d="m23.175,-68.01551339285707 h-0.425 A0.175,0.175,0,1,1,22.75,-68.36551339285707 h0.4250000000000007 Z" stroke-width="0.01" stroke="black" fill="none" />
<path d="m23.175,-69.26473214285708 h-0.425 A0.175,0.175,0,1,1,22.75,-69.61473214285708 h0.4250000000000007 Z" stroke-width="0.01" stroke="black" fill="none" />
<path d="m23.175,-70.51377551020407 h-0.425 A0.175,0.175,0,0,1,22.575,-70.68877551020407 v-0.5 A0.175,0.175,0,0,1,22.75,-71.36377551020406 h0.4250000000000007 Z" stroke-width="0.01" stroke="black" fill="none" />
<path d="m23.175,-73.86377551020408 h-0.425 A0.175,0.175,0,0,1,22.575,-74.03877551020408 v-0.25 A0.175,0.175,0,0,1,22.75,-74.46377551020407 h0.4250000000000007 Z" stroke-width="0.01" stroke="black" fill="none" />
<path d="m23.175,-79.825 h-0.425 A0.175,0.175,0,1,1,22.75,-80.175 h0.4250000000000007 Z" stroke-width="0.01" stroke="black" fill="none" />
<circle cx="23.0" cy="80.0" r="0.125" fill="none" stroke-width="0.01" stroke="black" />
<circle cx="22.75" cy="80.0" r="0.125" fill="none" stroke-width="0.01" stroke="black" />
<circle cx="-80.0" cy="80.0" r="0.125" fill="none" stroke-width="0.01" stroke="black" />
<circle cx="23.0" cy="74.28877551020408" r="0.125" fill="none" stroke-width="0.01" stroke="black" />
<circle cx="22.75" cy="74.28877551020408" r="0.125" fill="none" stroke-width="0.01" stroke="black" />
<circle cx="-80.0" cy="74.28877551020408" r="0.125" fill="none" stroke-width="0.01" stroke="black" />
<circle cx="23.0" cy="74.03877551020408" r="0.125" fill="none" stroke-width="0.01" stroke="black" />
<circle cx="22.75" cy="74.03877551020408" r="0.125" fill="none" stroke-width="0.01" stroke="black" />
<circle cx="-80.0" cy="74.03877551020408" r="0.125" fill="none" stroke-width="0.01" stroke="black" />
<circle cx="23.0" cy="71.18877551020407" r="0.125" fill="none" stroke-width="0.01" stroke="black" />
<circle cx="22.75" cy="71.18877551020407" r="0.125" fill="none" stroke-width="0.01" stroke="black" />
<circle cx="-80.0" cy="71.18877551020407" r="0.125" fill="none" stroke-width="0.01" stroke="black" />
<circle cx="23.0" cy="70.93877551020407" r="0.125" fill="none" stroke-width="0.01" stroke="black" />
<circle cx="22.75" cy="70.93877551020407" r="0.125" fill="none" stroke-width="0.01" stroke="black" />
<circle cx="-80.0" cy="70.93877551020407" r="0.125" fill="none" stroke-width="0.01" stroke="black" />
<circle cx="23.0" cy="70.68877551020407" r="0.125" fill="none" stroke-width="0.01" stroke="black" />
<circle cx="22.75" cy="70.68877551020407" r="0.125" fill="none" stroke-width="0.01" stroke="black" />
<circle cx="-80.0" cy="70.68877551020407" r="0.125" fill="none" stroke-width="0.01" stroke="black" />
<circle cx="23.0" cy="69.43973214285708" r="0.125" fill="none" stroke-width="0.01" stroke="black" />
<circle cx="22.75" cy="69.43973214285708" r="0.125" fill="none" stroke-width="0.01" stroke="black" />
<circle cx="-80.0" cy="69.43973214285708" r="0.125" fill="none" stroke-width="0.01" stroke="black" />
<circle cx="23.0" cy="68.19051339285707" r="0.125" fill="none" stroke-width="0.01" stroke="black" />
<circle cx="22.75" cy="68.19051339285707" r="0.125" fill="none" stroke-width="0.01" stroke="black" />
<circle cx="-80.0" cy="68.19051339285707" r="0.125" fill="none" stroke-width="0.01" stroke="black" />
<circle cx="23.0" cy="66.94129464285675" r="0.125" fill="none" stroke-width="0.01" stroke="black" />
<circle cx="22.75" cy="66.94129464285675" r="0.125" fill="none" stroke-width="0.01" stroke="black" />
<circle cx="-80.0" cy="66.94129464285675" r="0.125" fill="none" stroke-width="0.01" stroke="black" />
<circle cx="23.0" cy="54.252869897959464" r="0.125" fill="none" stroke-width="0.01" stroke="black" />
<circle cx="22.75" cy="54.252869897959464" r="0.125" fill="none" stroke-width="0.01" stroke="black" />
<circle cx="-80.0" cy="54.252869897959464" r="0.125" fill="none" stroke-width="0.01" stroke="black" />
<circle cx="23.0" cy="50.525845025510094" r="0.125" fill="none" stroke-width="0.01" stroke="black" />
<circle cx="22.75" cy="50.525845025510094" r="0.125" fill="none" stroke-width="0.01" stroke="black" />
<circle cx="-80.0" cy="50.525845025510094" r="0.125" fill="none" stroke-width="0.01" stroke="black" />
<circle cx="23.0" cy="48.912420280612054" r="0.125" fill="none" stroke-width="0.01" stroke="black" />
<circle cx="22.75" cy="48.912420280612054" r="0.125" fill="none" stroke-width="0.01" stroke="black" />
<circle cx="-80.0" cy="48.912420280612054" r="0.125" fill="none" stroke-width="0.01" stroke="black" />
<circle cx="23.0" cy="47.42492028061216" r="0.125" fill="none" stroke-width="0.01" stroke="black" />
<circle cx="22.75" cy="47.42492028061216" r="0.125" fill="none" stroke-width="0.01" stroke="black" />
<circle cx="-80.0" cy="47.42492028061216" r="0.125" fill="none" stroke-width="0.01" stroke="black" />
<circle cx="23.0" cy="44.76898915816324" r="0.125" fill="none" stroke-width="0.01" stroke="black" />
<circle cx="22.75" cy="44.76898915816324" r="0.125" fill="none" stroke-width="0.01" stroke="black" />
<circle cx="-80.0" cy="44.76898915816324" r="0.125" fill="none" stroke-width="0.01" stroke="black" />
<circle cx="23.0" cy="37.764620535714336" r="0.125" fill="none" stroke-width="0.01" stroke="black" />
<circle cx="22.75" cy="37.764620535714336" r="0.125" fill="none" stroke-width="0.01" stroke="black" />
<circle cx="-80.0" cy="37.764620535714336" r="0.125" fill="none" stroke-width="0.01" stroke="black" />
<circle cx="23.0" cy="34.4188456632652" r="0.125" fill="none" stroke-width="0.01" stroke="black" />
<circle cx="22.75" cy="34.4188456632652" r="0.125" fill="none" stroke-width="0.01" stroke="black" />
<circle cx="-80.0" cy="34.4188456632652" r="0.125" fill="none" stroke-width="0.01" stroke="black" />
<circle cx="23.0" cy="30.94494579081641" r="0.125" fill="none" stroke-width="0.01" stroke="black" />
<circle cx="22.75" cy="30.94494579081641" r="0.125" fill="none" stroke-width="0.01" stroke="black" />
<circle cx="-80.0" cy="30.94494579081641" r="0.125" fill="none" stroke-width="0.01" stroke="black" />
<circle cx="23.0" cy="28.174170918367338" r="0.125" fill="none" stroke-width="0.01" stroke="black" />
<circle cx="22.75" cy="28.174170918367338" r="0.125" fill="none" stroke-width="0.01" stroke="black" />
<circle cx="-80.0" cy="28.174170918367338" r="0.125" fill="none" stroke-width="0.01" stroke="black" />
<circle cx="23.0" cy="24.044802295918306" r="0.125" fill="none" stroke-width="0.01" stroke="black" />
<circle cx="22.75" cy="24.044802295918306" r="0.125" fill="none" stroke-width="0.01" stroke="black" />
<circle cx="-80.0" cy="24.044802295918306" r="0.125" fill="none" stroke-width="0.01" stroke="black" />
<circle cx="23.0" cy="21.28183992346932" r="0.125" fill="none" stroke-width="0.01" stroke="black" />
<circle cx="22.75" cy="21.28183992346932" r="0.125" fill="none" stroke-width="0.01" stroke="black" />
<circle cx="-80.0" cy="21.28183992346932" r="0.125" fill="none" stroke-width="0.01" stroke="black" />
<circle cx="23.0" cy="15.7188775510205" r="0.125" fill="none" stroke-width="0.01" stroke="black" />
<circle cx="22.75" cy="15.7188775510205" r="0.125" fill="none" stroke-width="0.01" stroke="black" />
<circle cx="-80.0" cy="15.7188775510205" r="0.125" fill="none" stroke-width="0.01" stroke="black" />
<circle cx="23.0" cy="12.815290178571422" r="0.125" fill="none" stroke-width="0.01" stroke="black" />
<circle cx="22.75" cy="12.815290178571422" r="0.125" fill="none" stroke-width="0.01" stroke="black" />
<circle cx="-80.0" cy="12.815290178571422" r="0.125" fill="none" stroke-width="0.01" stroke="black" />
<circle cx="23.0" cy="8.964046556122446" r="0.125" fill="none" stroke-width="0.01" stroke="black" />
<circle cx="22.75" cy="8.964046556122446" r="0.125" fill="none" stroke-width="0.01" stroke="black" />
<circle cx="-80.0" cy="8.964046556122446" r="0.125" fill="none" stroke-width="0.01" stroke="black" />
<circle cx="23.0" cy="5.404528061224496" r="0.125" fill="none" stroke-width="0.01" stroke="black" />
<circle cx="22.75" cy="5.404528061224496" r="0.125" fill="none" stroke-width="0.01" stroke="black" />
<circle cx="-80.0" cy="5.404528061224496" r="0.125" fill="none" stroke-width="0.01" stroke="black" />
<circle cx="23.0" cy="3.5810905612244928" r="0.125" fill="none" stroke-width="0.01" stroke="black" />
<circle cx="22.75" cy="3.5810905612244928" r="0.125" fill="none" stroke-width="0.01" stroke="black" />
<circle cx="-80.0" cy="3.5810905612244928" r="0.125" fill="none" stroke-width="0.01" stroke="black" />
<circle cx="23.0" cy="-3.5810905612244928" r="0.125" fill="none" stroke-width="0.01" stroke="black" />
<circle cx="22.75" cy="-3.5810905612244928" r="0.125" fill="none" stroke-width="0.01" stroke="black" />
<circle cx="-80.0" cy="-3.5810905612244928" r="0.125" fill="none" stroke-width="0.01" stroke="black" />
<circle cx="23.0" cy="-5.404528061224496" r="0.125" fill="none" stroke-width="0.01" stroke="black" />
<circle cx="22.75" cy="-5.404528061224496" r="0.125" fill="none" stroke-width="0.01" stroke="black" />
<circle cx="-80.0" cy="-5.404528061224496" r="0.125" fill="none" stroke-width="0.01" stroke="black" />
<circle cx="23.0" cy="-8.964046556122446" r="0.125" fill="none" stroke-width="0.01" stroke="black" />
<circle cx="22.75" cy="-8.964046556122446" r="0.125" fill="none" stroke-width="0.01" stroke="black" />
<circle cx="-80.0" cy="-8.964046556122446" r="0.125" fill="none" stroke-width="0.01" stroke="black" />
<circle cx="23.0" cy="-12.815290178571422" r="0.125" fill="none" stroke-width="0.01" stroke="black" />
<circle cx="22.75" cy="-12.815290178571422" r="0.125" fill="none" stroke-width="0.01" stroke="black" />
<circle cx="-80.0" cy="-12.815290178571422" r="0.125" fill="none" stroke-width="0.01" stroke="black" />
<circle cx="23.0" cy="-15.7188775510205" r="0.125" fill="none" stroke-width="0.01" stroke="black" />
<circle cx="22.75" cy="-15.7188775510205" r="0.125" fill="none" stroke-width="0.01" stroke="black" />
<circle cx="-80.0" cy="-15.7188775510205" r="0.125" fill="none" stroke-width="0.01" stroke="black" />
<circle cx="23.0" cy="-21.28183992346932" r="0.125" fill="none" stroke-width="0.01" stroke="black" />
<circle cx="22.75" cy="-21.28183992346932" r="0.125" fill="none" stroke-width="0.01" stroke="black" />
<circle cx="-80.0" cy="-21.28183992346932" r="0.125" fill="none" stroke-width="0.01" stroke="black" />
<circle cx="23.0" cy="-24.044802295918306" r="0.125" fill="none" stroke-width="0.01" stroke="black" />
<circle cx="22.75" cy="-24.044802295918306" r="0.125" fill="none" stroke-width="0.01" stroke="black" />
<circle cx="-80.0" cy="-24.044802295918306" r="0.125" fill="none" stroke-width="0.01" stroke="black" />
<circle cx="23.0" cy="-28.174170918367338" r="0.125" fill="none" stroke-width="0.01" stroke="black" />
<circle cx="22.75" cy="-28.174170918367338" r="0.125" fill="none" stroke-width="0.01" stroke="black" />
<circle cx="-80.0" cy="-28.174170918367338" r="0.125" fill="none" stroke-width="0.01" stroke="black" />
<circle cx="23.0" cy="-30.94494579081641" r="0.125" fill="none" stroke-width="0.01" stroke="black" />
<circle cx="22.75" cy="-30.94494579081641" r="0.125" fill="none" stroke-width="0.01" stroke="black" />
<circle cx="-80.0" cy="-30.94494579081641" r="0.125" fill="none" stroke-width="0.01" stroke="black" />
<circle cx="23.0" cy="-34.4188456632652" r="0.125" fill="none" stroke-width="0.01" stroke="black" />
<circle cx="22.75" cy="-34.4188456632652" r="0.125" fill="none" stroke-width="0.01" stroke="black" />
<circle cx="-80.0" cy="-34.4188456632652" r="0.125" fill="none" stroke-width="0.01" stroke="black" />
<circle cx="23.0" cy="-37.764620535714336" r="0.125" fill="none" stroke-width="0.01" stroke="black" />
<circle cx="22.75" cy="-37.764620535714336" r="0.125" fill="none" stroke-width="0.01" stroke="black" />
<circle cx="-80.0" cy="-37.764620535714336" r="0.125" fill="none" stroke-width="0.01" stroke="black" />
<circle cx="23.0" cy="-44.76898915816324" r="0.125" fill="none" stroke-width="0.01" stroke="black" />
<circle cx="22.75" cy="-44.76898915816324" r="0.125" fill="none" stroke-width="0.01" stroke="black" />
<circle cx="-80.0" cy="-44.76898915816324" r="0.125" fill="none" stroke-width="0.01" stroke="black" />
<circle cx="23.0" cy="-47.42492028061216" r="0.125" fill="none" stroke-width="0.01" stroke="black" />
<circle cx="22.75" cy="-47.42492028061216" r="0.125" fill="none" stroke-width="0.01" stroke="black" />
<circle cx="-80.0" cy="-47.42492028061216" r="0.125" fill="none" stroke-width="0.01" stroke="black" />
<circle cx="23.0" cy="-48.912420280612054" r="0.125" fill="none" stroke-width="0.01" stroke="black" />
<circle cx="22.75" cy="-48.912420280612054" r="0.125" fill="none" stroke-width="0.01" stroke="black" />
<circle cx="-80.0" cy="-48.912420280612054" r="0.125" fill="none" stroke-width="0.01" stroke="black" />
<circle cx="23.0" cy="-50.525845025510094" r="0.125" fill="none" stroke-width="0.01" stroke="black" />
<circle cx="22.75" cy="-50.525845025510094" r="0.125" fill="none" stroke-width="0.01" stroke="black" />
<circle cx="-80.0" cy="-50.525845025510094" r="0.125" fill="none" stroke-width="0.01" stroke="black" />
<circle cx="23.0" cy="-54.252869897959464" r="0.125" fill="none" stroke-width="0.01" stroke="black" />
<circle cx="22.75" cy="-54.252869897959464" r="0.125" fill="none" stroke-width="0.01" stroke="black" />
<circle cx="-80.0" cy="-54.252869897959464" r="0.125" fill="none" stroke-width="0.01" stroke="black" />
<circle cx="23.0" cy="-66.94129464285675" r="0.125" fill="none" stroke-width="0.01" stroke="black" />
<circle cx="22.75" cy="-66.94129464285675" r="0.125" fill="none" stroke-width="0.01" stroke="black" />
<circle cx="-80.0" cy="-66.94129464285675" r="0.125" fill="none" stroke-width="0.01" stroke="black" />
<circle cx="23.0" cy="-68.19051339285707" r="0.125" fill="none" stroke-width="0.01" stroke="black" />
<circle cx="22.75" cy="-68.19051339285707" r="0.125" fill="none" stroke-width="0.01" stroke="black" />
<circle cx="-80.0" cy="-68.19051339285707" r="0.125" fill="none" stroke-width="0.01" stroke="black" />
<circle cx="23.0" cy="-69.43973214285708" r="0.125" fill="none" stroke-width="0.01" stroke="black" />
<circle cx="22.75" cy="-69.43973214285708" r="0.125" fill="none" stroke-width="0.01" stroke="black" />
<circle cx="-80.0" cy="-69.43973214285708" r="0.125" fill="none" stroke-width="0.01" stroke="black" />
<circle cx="23.0" cy="-70.68877551020407" r="0.125" fill="none" stroke-width="0.01" stroke="black" />
<circle cx="22.75" cy="-70.68877551020407" r="0.125" fill="none" stroke-width="0.01" stroke="black" />
<circle cx="-80.0" cy="-70.68877551020407" r="0.125" fill="none" stroke-width="0.01" stroke="black" />
<circle cx="23.0" cy="-70.93877551020407" r="0.125" fill="none" stroke-width="0.01" stroke="black" />
<circle cx="22.75" cy="-70.93877551020407" r="0.125" fill="none" stroke-width="0.01" stroke="black" />
<circle cx="-80.0" cy="-70.93877551020407" r="0.125" fill="none" stroke-width="0.01" stroke="black" />
<circle cx="23.0" cy="-71.18877551020407" r="0.125" fill="none" stroke-width="0.01" stroke="black" />
<circle cx="22.75" cy="-71.18877551020407" r="0.125" fill="none" stroke-width="0.01" stroke="black" />
<circle cx="-80.0" cy="-71.18877551020407" r="0.125" fill="none" stroke-width="0.01" stroke="black" />
<circle cx="23.0" cy="-74.03877551020408" r="0.125" fill="none" stroke-width="0.01" stroke="black" />
<circle cx="22.75" cy="-74.03877551020408" r="0.125" fill="none" stroke-width="0.01" stroke="black" />
<circle cx="-80.0" cy="-74.03877551020408" r="0.125" fill="none" stroke-width="0.01" stroke="black" />
<circle cx="23.0" cy="-74.28877551020408" r="0.125" fill="none" stroke-width="0.01" stroke="black" />
<circle cx="22.75" cy="-74.28877551020408" r="0.125" fill="none" stroke-width="0.01" stroke="black" />
<circle cx="-80.0" cy="-74.28877551020408" r="0.125" fill="none" stroke-width="0.01" stroke="black" />
<circle cx="23.0" cy="-80.0" r="0.125" fill="none" stroke-width="0.01" stroke="black" />
<circle cx="22.75" cy="-80.0" r="0.125" fill="none" stroke-width="0.01" stroke="black" />
<circle cx="-80.0" cy="-80.0" r="0.125" fill="none" stroke-width="0.01" stroke="black" />
</svg>